<svg width="54" height="57" viewBox="0 0 54 57" fill="none" xmlns="http://www.w3.org/2000/svg">
<path d="M29.9777 2.2704C19.4858 5.67502 18.6694 14.3308 19.7778 16.2216L27.3025 16.3404C24.6506 11.8464 26.2952 5.53607 29.9777 2.2704Z" fill="#DD0000"/>
<path d="M32.828 4.67486C26.5465 7.9786 27.3446 14.879 28.2471 16.1527C30.1263 16.6003 32.6667 16.2788 33.702 16.0621C31.5442 13.0339 32.4558 7.1409 32.828 4.67486Z" fill="#3D0A66"/>
<path d="M15.1527 43.159C19.4183 39.5028 23.6838 38.6955 26.8838 38.6061C30.0838 38.6955 34.3493 39.5028 38.6148 43.159C43.1767 47.0692 52.3005 51.6311 53.6039 39.9005C54.9073 28.17 48.3903 11.2258 35.3564 14.4843C32.5678 15.4137 28.8824 15.7218 26.8838 15.7778C24.8852 15.7218 21.1997 15.4137 18.4112 14.4843C5.37726 11.2258 -1.13971 28.17 0.163687 39.9005C1.46708 51.6311 10.5908 47.0692 15.1527 43.159Z" fill="white"/>
<circle cx="14.0022" cy="28.5048" r="8.95723" fill="black"/>
<path fill-rule="evenodd" clip-rule="evenodd" d="M11.2377 23.8964C10.7287 23.3874 9.90347 23.3874 9.39446 23.8964C8.88545 24.4054 8.88545 25.2307 9.39446 25.7397L12.1589 28.5042L9.39347 31.2696C8.88447 31.7786 8.88447 32.6039 9.39347 33.1129C9.90248 33.6219 10.7277 33.6219 11.2368 33.1129L14.0022 30.3474L16.7676 33.1128C17.2766 33.6218 18.1018 33.6218 18.6109 33.1128C19.1199 32.6038 19.1199 31.7785 18.6108 31.2695L15.8455 28.5042L18.6099 25.7398C19.1189 25.2308 19.1189 24.4055 18.6099 23.8965C18.1009 23.3875 17.2756 23.3875 16.7666 23.8965L14.0022 26.6609L11.2377 23.8964Z" fill="#DD0000"/>
<circle cx="41.2481" cy="23.8181" r="2.4723" transform="rotate(15.884 41.2481 23.8181)" fill="#3D0A66"/>
<circle cx="44.3028" cy="29.3067" r="2.4723" transform="rotate(15.884 44.3028 29.3067)" fill="#3D0A66"/>
<circle cx="38.8145" cy="32.3612" r="2.4723" transform="rotate(15.884 38.8145 32.3612)" fill="#3D0A66"/>
<circle cx="35.7598" cy="26.8727" r="2.4723" transform="rotate(15.884 35.7598 26.8727)" fill="#3D0A66"/>
<path d="M19.836 56.2788C19.8376 53.0712 20.1106 51.9139 21.0484 49.1387C21.0484 49.1387 19.2358 48.5619 18.7334 48.3523C18.231 48.1427 16.4934 47.1207 16.4934 47.1207C16.3006 48.3225 15.7714 53.4864 19.836 56.2788Z" fill="#DD0000"/>
<path d="M34.2492 56.1482C34.2476 52.9406 34.0219 51.588 33.0841 48.8128C33.0841 48.8128 34.6297 48.3057 35.2568 47.9922C35.8839 47.6786 37.4345 46.7806 37.4345 46.7806C37.6273 47.9824 38.3138 53.3558 34.2492 56.1482Z" fill="#DD0000"/>
</svg>
