<svg width="21" height="21" viewBox="0 0 21 21" fill="none" xmlns="http://www.w3.org/2000/svg">
<path d="M10.4934 0.079834C12.0538 0.079834 13.5383 0.442839 14.8705 1.09219C15.0794 1.1879 15.2897 1.30246 15.4979 1.41711L14.5845 2.23873L13.2151 0.805946L10.8555 2.90713L9.466 1.39777L5.12706 5.31408L7.90499 8.38972L6.82052 9.34465L9.56124 12.4203L8.47666 13.3748L12.3971 17.7495L14.7174 15.6099L16.7355 17.9029C16.3356 18.2086 15.8979 18.5148 15.4227 18.7818C13.9762 19.6032 12.3013 20.0798 10.5127 20.0798C5.01247 20.0798 0.541079 15.5915 0.541079 10.0712C0.521655 4.58826 4.99383 0.079834 10.4934 0.079834ZM8.66625 9.4595L11.0451 7.31984L13.1769 9.70765L10.7976 11.8471L8.66625 9.4595ZM10.3604 13.5859L12.7199 11.4273L14.8705 13.8149L12.4915 15.9547L10.3604 13.5859ZM6.97358 5.39075L9.35173 3.25109L11.4831 5.6389L9.10412 7.77846L6.97358 5.39075ZM11.3306 4.2442L13.1005 2.63963L14.6995 4.41629L12.9295 6.03981L11.3306 4.2442ZM14.4899 11.5989L16.2593 9.99419L17.8581 11.7894L16.0881 13.3951L14.4899 11.5989ZM16.0502 15.2097L17.8202 13.6047L19.4178 15.3813L17.6484 17.0046L16.0502 15.2097ZM16.7735 6.95684L17.9532 5.88695L19.0185 7.07179L17.839 8.14127L16.7735 6.95684ZM15.251 3.42277L16.4308 2.33414L17.4969 3.53742L16.3163 4.6072L15.251 3.42277ZM18.2767 10.4912L19.4564 9.42142L20.541 10.6059L19.3426 11.6753L18.2767 10.4912ZM12.9674 7.83579L14.7374 6.23112L16.3356 8.00738L14.5663 9.61235L12.9674 7.83579Z" fill="white"/>
</svg>
