<svg width="53" height="21" viewBox="0 0 53 21" fill="none" xmlns="http://www.w3.org/2000/svg">
<path d="M19.8809 0.946045V16.3174H22.2599V11.0622H25.5531C28.5613 11.0622 30.6749 8.99162 30.6749 5.99425C30.6749 2.99688 28.6006 0.946045 25.6318 0.946045H19.8809ZM22.2599 2.95744H25.0026C27.067 2.95744 28.2467 4.06173 28.2467 6.00411C28.2467 7.94649 27.067 9.06064 24.9928 9.06064H22.2599V2.95744ZM35.02 16.4358C36.5143 16.4358 37.9004 15.6766 38.5295 14.4737H38.5787V16.3174H40.7808V8.66625C40.7808 6.4478 39.0112 5.01813 36.2882 5.01813C33.7617 5.01813 31.8939 6.46752 31.8251 8.4592H33.9681C34.1451 7.51266 35.02 6.89149 36.2193 6.89149C37.6743 6.89149 38.4902 7.57182 38.4902 8.82401V9.67195L35.5214 9.84942C32.759 10.017 31.2647 11.1509 31.2647 13.1229C31.2647 15.1145 32.8081 16.4358 35.02 16.4358ZM35.659 14.6117C34.3908 14.6117 33.5847 14.0004 33.5847 13.0637C33.5847 12.0975 34.3614 11.5354 35.8458 11.4467L38.4902 11.2791V12.1468C38.4902 13.5863 37.2712 14.6117 35.659 14.6117ZM43.7201 20.498C46.0401 20.498 47.1313 19.6106 48.0849 16.9189L52.2629 5.16603H49.8446L47.0429 14.2469H46.9937L44.192 5.16603H41.7048L45.7354 16.3569L45.5191 17.0372C45.1554 18.1908 44.5655 18.6345 43.5137 18.6345C43.3269 18.6345 42.9631 18.6148 42.8157 18.595V20.4388C42.9533 20.4783 43.5431 20.498 43.7201 20.498Z" fill="#888888"/>
<path d="M7.58556 3.98301C8.5293 4.06189 9.47304 3.50974 10.0629 2.8097C10.6429 2.08993 11.0263 1.12367 10.928 0.137695C10.0924 0.177134 9.06016 0.689843 8.47032 1.40961C7.92964 2.03077 7.4676 3.03647 7.58556 3.98301Z" fill="white"/>
<path d="M7.73302 4.94927C8.38184 4.94927 9.55169 4.09147 10.9181 4.17034C11.449 4.20978 12.9826 4.36754 13.9656 5.82679C13.887 5.88595 12.147 6.89164 12.1666 9.00164C12.1863 11.5257 14.3687 12.3638 14.3884 12.3835C14.3687 12.4427 14.0443 13.5766 13.248 14.74C12.55 15.7654 11.8324 16.7711 10.692 16.7909C9.59101 16.8106 9.22728 16.1303 7.95913 16.1303C6.70081 16.1303 6.28792 16.7711 5.24588 16.8106C4.14485 16.85 3.30925 15.726 2.61127 14.7006C1.18583 12.63 0.0946333 8.8636 1.56923 6.31978C2.28686 5.04786 3.59433 4.24922 5.00011 4.2295C6.08148 4.20978 7.07437 4.94927 7.73302 4.94927Z" fill="white"/>
</svg>
