<svg width="51" height="21" viewBox="0 0 51 21" fill="none" xmlns="http://www.w3.org/2000/svg">
<path d="M24.3428 10.0892V15.9473H22.4844V1.48046H27.4132C28.0016 1.46817 28.5865 1.57252 29.1343 1.78748C29.6821 2.00243 30.1819 2.32375 30.6049 2.73288C31.0321 3.11717 31.3721 3.58845 31.6021 4.11507C31.832 4.64168 31.9466 5.21142 31.9381 5.78599C31.9503 6.36364 31.8375 6.9371 31.6074 7.46706C31.3773 7.99703 31.0353 8.47098 30.6049 8.85642C29.743 9.67828 28.6791 10.0888 27.4132 10.0881H24.3428V10.0892ZM24.3428 3.26154V8.31159H27.4594C27.8011 8.32172 28.1411 8.26043 28.4577 8.13163C28.7743 8.00283 29.0606 7.80937 29.2982 7.56361C29.5345 7.33383 29.7224 7.059 29.8507 6.75536C29.979 6.45171 30.0451 6.12543 30.0451 5.7958C30.0451 5.46618 29.979 5.13989 29.8507 4.83625C29.7224 4.53261 29.5345 4.25777 29.2982 4.028C29.0636 3.77706 28.7783 3.57886 28.4613 3.44652C28.1443 3.31418 27.8028 3.25074 27.4594 3.26039H24.3428V3.26154Z" fill="#9B9B9B"/>
<path d="M36.2198 5.72583C37.5934 5.72583 38.6777 6.0929 39.4726 6.82703C40.2676 7.56116 40.6646 8.56771 40.6639 9.84667V15.9471H38.8863V14.5735H38.8055C38.0359 15.7047 37.0125 16.2703 35.735 16.2703C34.6446 16.2703 33.7323 15.9471 32.9982 15.3007C32.6459 15.004 32.3642 14.6325 32.1737 14.2131C31.9832 13.7938 31.8887 13.3372 31.897 12.8767C31.897 11.8525 32.2841 11.0379 33.0582 10.4331C33.8324 9.8282 34.8658 9.52501 36.1587 9.52347C37.2622 9.52347 38.171 9.72547 38.8851 10.1295V9.70469C38.8872 9.39074 38.8194 9.08026 38.6867 8.79576C38.5539 8.51126 38.3595 8.25987 38.1175 8.05982C37.6261 7.61643 36.9856 7.3745 36.3237 7.38225C35.2856 7.38225 34.4641 7.82011 33.8593 8.69584L32.2225 7.66505C33.1229 6.37224 34.4553 5.72583 36.2198 5.72583ZM33.8154 12.9171C33.8142 13.1536 33.8695 13.387 33.9767 13.5978C34.0839 13.8087 34.24 13.9908 34.4318 14.1291C34.8428 14.4524 35.353 14.6237 35.8759 14.6139C36.6601 14.6126 37.4118 14.3005 37.9663 13.7459C38.5819 13.1664 38.8897 12.4865 38.8897 11.7062C38.3103 11.2445 37.5023 11.0137 36.4657 11.0137C35.7108 11.0137 35.0813 11.1957 34.5773 11.5596C34.0682 11.929 33.8154 12.378 33.8154 12.9171Z" fill="#9B9B9B"/>
<path d="M50.8684 6.04858L44.6629 20.3099H42.7444L45.0472 15.3199L40.9668 6.04858H42.9868L45.936 13.1591H45.9764L48.8449 6.04858H50.8684Z" fill="#9B9B9B"/>
<path d="M16.8324 8.82612C16.8331 8.25977 16.7852 7.6944 16.6892 7.13623H8.85156V10.3371H13.3406C13.2488 10.8483 13.0543 11.3357 12.7691 11.7697C12.4838 12.2038 12.1136 12.5756 11.6807 12.8627V14.9404H14.3599C15.9286 13.4941 16.8324 11.3552 16.8324 8.82612Z" fill="white"/>
<path d="M8.85138 16.9481C11.0942 16.9481 12.9826 16.2117 14.3597 14.9419L11.6806 12.8642C10.9349 13.3698 9.97451 13.6584 8.85138 13.6584C6.6836 13.6584 4.84366 12.197 4.18571 10.2278H1.42578V12.369C2.11751 13.7455 3.17821 14.9026 4.48945 15.7112C5.80069 16.5198 7.31086 16.948 8.85138 16.9481Z" fill="white"/>
<path d="M4.18591 10.2277C3.83807 9.19585 3.83807 8.07839 4.18591 7.04649V4.90527H1.42598C0.844074 6.06321 0.541016 7.34119 0.541016 8.63712C0.541016 9.93305 0.844074 11.211 1.42598 12.369L4.18591 10.2277Z" fill="white"/>
<path d="M8.85137 3.61573C10.0366 3.59637 11.1818 4.04418 12.0395 4.86237L14.4116 2.49029C12.9075 1.07752 10.9148 0.301884 8.85137 0.325985C7.31086 0.326055 5.80069 0.754292 4.48945 1.56289C3.17821 2.37148 2.11751 3.52861 1.42578 4.90508L4.18571 7.0463C4.84365 5.07707 6.6836 3.61573 8.85137 3.61573Z" fill="white"/>
</svg>
