<svg width="33" height="21" viewBox="0 0 33 21" fill="none" xmlns="http://www.w3.org/2000/svg">
<path d="M21.1083 17.9886H12.3086V2.17407H21.1083V17.9886Z" fill="#3A3938"/>
<path d="M12.8721 10.0797C12.8721 6.87167 14.3741 4.01402 16.7132 2.17243C15.0027 0.825778 12.8439 0.0220037 10.4979 0.0220037C4.94369 0.0220037 0.441406 4.52493 0.441406 10.0797C0.441406 15.6345 4.94369 20.1375 10.4979 20.1375C12.8439 20.1375 15.0027 19.3337 16.7132 17.987C14.3741 16.1454 12.8721 13.2878 12.8721 10.0797Z" fill="#E2E2E2"/>
<path d="M32.9755 10.0797C32.9755 15.6345 28.4733 20.1375 22.9191 20.1375C20.573 20.1375 18.4143 19.3337 16.7031 17.987C19.0428 16.1454 20.5449 13.2878 20.5449 10.0797C20.5449 6.87167 19.0428 4.01402 16.7031 2.17243C18.4143 0.825778 20.573 0.0220037 22.9191 0.0220037C28.4733 0.0220037 32.9755 4.52493 32.9755 10.0797Z" fill="#AFAEAE"/>
</svg>
