<svg width="18" height="21" viewBox="0 0 18 21" fill="none" xmlns="http://www.w3.org/2000/svg">
<path opacity="0.68" d="M15.5386 5.17688C15.7818 3.62585 15.5369 2.57072 14.6981 1.61468C13.7745 0.562381 12.1061 0.111572 9.97147 0.111572H3.77508C3.33889 0.111572 2.96728 0.428966 2.89945 0.860078L0.319078 17.2216C0.268311 17.5445 0.51788 17.8363 0.844412 17.8363H4.66979L4.40581 19.5106C4.36133 19.793 4.57943 20.0483 4.86535 20.0483H8.08985C8.47141 20.0483 8.79632 19.7707 8.85582 19.3936L8.8875 19.2295L9.49487 15.3778L9.53406 15.1649C9.59356 14.7881 9.91847 14.5101 10.3 14.5101H10.7823C13.9061 14.5101 16.352 13.2411 17.0666 9.57085C17.3653 8.03729 17.2108 6.75715 16.4211 5.85716C16.1825 5.58545 15.8852 5.36045 15.5386 5.17688Z" fill="white"/>
<path opacity="0.7" d="M15.5386 5.17688C15.7818 3.62585 15.5369 2.57072 14.6981 1.61468C13.7745 0.562381 12.1061 0.111572 9.97147 0.111572H3.77508C3.33889 0.111572 2.96728 0.428966 2.89945 0.860078L0.319078 17.2216C0.268311 17.5445 0.51788 17.8363 0.844412 17.8363H4.66979L5.63071 11.7429L5.60086 11.9339C5.66888 11.503 6.03704 11.1854 6.47344 11.1854H8.2917C11.8624 11.1854 14.6585 9.73472 15.4752 5.53936C15.4996 5.41548 15.5201 5.29507 15.5386 5.17688Z" fill="white"/>
<path d="M6.6631 5.19739C6.70392 4.93828 6.87043 4.72587 7.09441 4.61865C7.19615 4.56991 7.31007 4.5427 7.42927 4.5427H12.2864C12.8619 4.5427 13.3984 4.58047 13.8888 4.65947C14.029 4.68201 14.1654 4.708 14.298 4.73744C14.4304 4.76689 14.5592 4.79958 14.6836 4.83613C14.746 4.85421 14.8071 4.8735 14.8674 4.8934C15.1083 4.97341 15.3326 5.06763 15.539 5.17708C15.7822 3.62606 15.5373 2.57092 14.6985 1.61488C13.7745 0.562381 12.1061 0.111572 9.97147 0.111572H3.77508C3.33889 0.111572 2.96728 0.428966 2.89945 0.860078L0.319078 17.2216C0.268311 17.5445 0.51788 17.8363 0.844412 17.8363H4.66979L5.63071 11.7429L6.6631 5.19739Z" fill="white"/>
</svg>
