<svg width="63" height="15" viewBox="0 0 63 15" fill="none" xmlns="http://www.w3.org/2000/svg">
<path d="M9.75153 4.76149C9.75153 6.23815 9.28843 7.36907 8.36514 8.15135C7.44185 8.93362 6.12874 9.32622 4.42579 9.32622H3.17422V14.2074H0.263672V0.478027H4.65148C6.31632 0.478027 7.58254 0.835471 8.45014 1.55329C9.31774 2.27111 9.75153 3.34051 9.75153 4.76149ZM3.17422 6.93838H4.13268C5.02665 6.93838 5.69787 6.76259 6.14339 6.40808C6.58891 6.05356 6.80874 5.54084 6.80874 4.86404C6.80874 4.18138 6.62115 3.67744 6.24891 3.35223C5.87666 3.02701 5.29338 2.86294 4.49613 2.86294H3.17422V6.93838Z" fill="#AFAEAE"/>
<path d="M18.413 14.2076L17.4164 10.9408H12.4101L11.4136 14.2076H8.27734L13.1253 0.425537H16.6866L21.5521 14.2076H18.413ZM16.7217 8.50025C15.8014 5.54109 15.2826 3.8652 15.1683 3.47846C15.051 3.09172 14.969 2.78408 14.9191 2.55848C14.714 3.35833 14.1219 5.34185 13.1429 8.50025H16.7217Z" fill="#AFAEAE"/>
<path d="M25.2606 6.13243L28.1272 0.480713H31.2635L26.7086 8.86599V14.2071H23.8156V8.95975L19.2578 0.480713H22.4146L25.2606 6.13243Z" fill="#AFAEAE"/>
<path d="M40.2733 14.2071H32.3652V0.480713H40.2733V2.86562H35.2758V5.88046H39.9245V8.26537H35.2758V11.8046H40.2733V14.2071Z" fill="white"/>
<path d="M50.4197 14.2071H42.5117V0.480713H50.4197V2.86562H45.4223V5.88046H50.0709V8.26537H45.4223V11.8046H50.4197V14.2071Z" fill="white"/>
<path d="M55.3471 8.94217V14.2101H52.4336V0.480713H56.4345C58.3016 0.480713 59.6821 0.820577 60.5761 1.50031C61.473 2.18004 61.9185 3.21135 61.9185 4.59425C61.9185 5.40289 61.6958 6.12071 61.2502 6.75063C60.8047 7.38055 60.1775 7.87277 59.3626 8.23021C62.3201 14.2101 59.3626 8.23021 62.3201 14.2101H59.09L56.8917 8.94217H55.3471ZM55.3471 6.57484H56.285C57.2054 6.57484 57.8854 6.42248 58.325 6.11485C58.7618 5.80721 58.9816 5.32671 58.9816 4.66749C58.9816 4.01706 58.7559 3.55414 58.3104 3.27874C57.8649 3.00333 57.1702 2.86562 56.2293 2.86562H55.3471V6.57484Z" fill="white"/>
</svg>
