<svg width="48" height="15" viewBox="0 0 48 15" fill="none" xmlns="http://www.w3.org/2000/svg">
<path d="M21.2122 13.8818H17.4297L19.7956 0.321533H23.5779L21.2122 13.8818Z" fill="white"/>
<path d="M34.9247 0.653243C34.1786 0.37887 32.9953 0.0759277 31.5321 0.0759277C27.7967 0.0759277 25.1663 1.92234 25.1501 4.56215C25.1191 6.5098 27.0334 7.59157 28.4652 8.24098C29.9286 8.90458 30.4261 9.33771 30.4261 9.92921C30.4112 10.8377 29.2436 11.2564 28.1545 11.2564C26.6444 11.2564 25.8352 11.0405 24.6055 10.5351L24.1074 10.3184L23.5781 13.3624C24.4653 13.7371 26.0997 14.0695 27.7967 14.0841C31.7656 14.0841 34.3495 12.2663 34.3801 9.45313C34.3952 7.90947 33.3843 6.72666 31.205 5.76012C29.8821 5.13966 29.0719 4.72129 29.0719 4.08646C29.0874 3.50933 29.7571 2.91821 31.2506 2.91821C32.4802 2.88926 33.3837 3.16325 34.0682 3.43743L34.4103 3.58143L34.9247 0.653243Z" fill="white"/>
<path d="M39.9518 9.0779C40.2633 8.29888 41.462 5.28384 41.462 5.28384C41.4463 5.31279 41.7729 4.49044 41.9596 3.9856L42.224 5.15403C42.224 5.15403 42.9403 8.39992 43.0958 9.0779C42.5047 9.0779 40.6989 9.0779 39.9518 9.0779ZM44.6209 0.321533H41.6951C40.7928 0.321533 40.1074 0.566571 39.7181 1.44664L34.0996 13.8816H38.0685C38.0685 13.8816 38.7219 12.208 38.8624 11.8475C39.2978 11.8475 43.1587 11.8475 43.7188 11.8475C43.8274 12.3236 44.1702 13.8816 44.1702 13.8816H47.6724L44.6209 0.321533Z" fill="white"/>
<path d="M14.2704 0.321533L10.566 9.56836L10.1613 7.693C9.47639 5.52907 7.32854 3.17801 4.93164 2.009L8.32469 13.8675H12.3246L18.2701 0.321533H14.2704Z" fill="white"/>
<path d="M7.12651 0.320312H1.04078L0.978516 0.594302C5.72577 1.7196 8.86978 4.43208 10.1615 7.69235L8.83855 1.46018C8.62074 0.594111 7.9514 0.348881 7.12651 0.320312Z" fill="#AFAEAE"/>
</svg>
